Coordinates
version=1
nRows=15
nColumns=42
inDegrees=yes

Units are S.I. units (second, meters, Newtons, ...)
If the header above contains a line with 'inDegrees', this indicates whether rotational values are in degrees (yes) or radians (no).

endheader
time	pelvis_tilt	pelvis_list	pelvis_rotation	pelvis_tx	pelvis_ty	pelvis_tz	hip_flexion_r	hip_adduction_r	hip_rotation_r	knee_angle_r	knee_adduction_r	knee_angle_r_beta	ankle_angle_r	subtalar_angle_r	mtp_angle_r	hip_flexion_l	hip_adduction_l	hip_rotation_l	knee_angle_l	knee_adduction_l	knee_angle_l_beta	ankle_angle_l	subtalar_angle_l	mtp_angle_l	lumbar_extension	lumbar_bending	lumbar_rotation	arm_flex_r	arm_add_r	arm_rot_r	elbow_flex_r	pro_sup_r	wrist_flex_r	wrist_dev_r	arm_flex_l	arm_add_l	arm_rot_l	elbow_flex_l	pro_sup_l	wrist_flex_l	wrist_dev_l
      2.10000000	     -0.40805894	      5.99564579	     16.14922285	      0.45404691	      0.88672522	      0.41741468	     24.75368606	    -17.12130674	    -23.62508266	     36.81287389	     -1.69426571	      0.64250586	      9.06570490	      0.28821826	     -7.61494751	      7.24037325	     -2.35561620	     -9.76033732	     12.51451704	      9.11561002	      0.21841953	     11.27064345	     37.19973644	     -7.61494751	    -18.43768820	     -5.95791544	     -6.24560269	    -11.85987606	    -11.53127457	    -19.49443596	     76.07060303	     90.00000001	      0.00000000	      0.00000000	      4.62623271	    -27.13716030	     15.73419789	     89.66079667	     90.00000001	      0.00000000	      0.00000000
      2.11000000	     -0.77448008	      6.22766202	     16.54584334	      0.45773158	      0.88601304	      0.41802133	     24.53079678	    -17.12118574	    -23.47245714	     34.45011950	     -1.37832956	      0.60126801	      8.27585470	      1.48910082	     -7.61349958	      7.38737063	     -1.98954777	     -9.45219882	     12.52723996	      8.85008528	      0.21864158	     11.51119879	     37.35355688	     -7.61349958	    -18.17318809	     -6.11761590	     -6.39865145	    -11.63653426	    -11.40344977	    -19.13649583	     75.38411786	     90.00000001	      0.00000000	      0.00000000	      4.86515912	    -27.34974651	     16.20113239	     89.95363794	     90.00000001	      0.00000000	      0.00000000
      2.12000000	     -0.96563542	      6.43945432	     16.98789609	      0.46166312	      0.88562700	      0.41882342	     24.08142976	    -17.09541480	    -23.85663827	     32.49638021	     -1.31936379	      0.56716883	      7.68046228	      2.83411321	     -7.61185270	      7.31018140	     -1.79416041	     -9.15691943	     12.51307228	      8.76531592	      0.21839431	     11.82870996	     37.48874646	     -7.61185270	    -18.06795337	     -6.22906156	     -6.55839803	    -11.44137787	    -11.29390166	    -18.80585574	     74.68630784	     90.00000001	      0.00000000	      0.00000000	      5.15974800	    -27.50030845	     16.62760570	     90.23692113	     90.00000001	      0.00000000	      0.00000000
      2.13000000	     -1.17653134	      6.65891738	     17.39653470	      0.46567972	      0.88526468	      0.41976177	     23.72589809	    -17.04358176	    -24.27188356	     31.01598215	     -1.46223187	      0.54133101	      7.36256888	      3.90010632	     -7.61056311	      7.26545811	     -1.57563960	     -8.87404069	     12.54581601	      8.62864789	      0.21896580	     12.05108211	     37.56449305	     -7.61056311	    -17.91687776	     -6.37075944	     -6.73005056	    -11.22911691	    -11.14244428	    -18.56585345	     74.21056471	     90.00000001	      0.00000000	      0.00000000	      5.35509173	    -27.59875779	     16.98074639	     90.46100757	     90.00000001	      0.00000000	      0.00000000
      2.14000000	     -1.03229568	      6.81792090	     17.95520153	      0.47009424	      0.88550344	      0.42057715	     22.97702907	    -17.04721336	    -26.18289384	     30.03755313	     -2.12212533	      0.52425420	      7.81632495	      7.43301892	     -7.60268821	      6.82259459	     -1.60865975	     -8.40862411	     12.54266162	      8.68482193	      0.21891074	     12.32396329	     37.60323423	     -7.60268821	    -18.08375326	     -6.30538900	     -6.97943361	    -11.01800662	    -11.06088542	    -18.33929706	     73.71900806	     90.00000001	      0.00000000	      0.00000000	      5.60014559	    -27.60193535	     17.26226825	     90.66549321	     90.00000001	      0.00000000	      0.00000000
      2.15000000	     -1.24464377	      6.93888346	     18.39298253	      0.47397211	      0.88538261	      0.42174080	     22.72303289	    -16.94922629	    -26.37880302	     29.38639903	     -2.23088518	      0.51288942	      7.72139710	      7.65502544	     -7.60130474	      6.90425160	     -1.44833071	     -8.07713804	     12.69326745	      8.43099471	      0.22153931	     12.55367370	     37.64478226	     -7.60130474	    -17.90070890	     -6.36476229	     -7.11143317	    -10.73594245	    -10.94915358	    -18.16049105	     73.11199088	     90.00000001	      0.00000000	      0.00000000	      5.86283392	    -27.59344335	     17.56876311	     90.78168282	     90.00000001	      0.00000000	      0.00000000
      2.16000000	     -1.41927839	      7.05790136	     18.72082244	      0.47787222	      0.88541540	      0.42310121	     22.52991820	    -16.83833279	    -26.50658481	     29.08746089	     -2.40620098	      0.50767196	      7.79251655	      7.71853044	     -7.60068042	      6.94353354	     -1.34661765	     -7.82979250	     12.86955254	      8.26371997	      0.22461607	     12.67157664	     37.62023563	     -7.60068042	    -17.76513396	     -6.43582700	     -7.08894929	    -10.53132386	    -10.88538057	    -18.02691784	     72.73132796	     90.00000001	      0.00000000	      0.00000000	      6.12153482	    -27.40597485	     17.71810324	     90.89206188	     90.00000001	      0.00000000	      0.00000000
      2.17000000	     -1.48392030	      6.92271219	     19.28418938	      0.48178593	      0.88573989	      0.42419612	     22.09218895	    -16.57570608	    -27.00179650	     28.82379323	     -2.49081789	      0.50307009	      8.01983090	      7.88483229	     -7.59896326	      7.11923348	     -1.48227906	     -7.32043906	     13.32071512	      8.00313219	      0.23249034	     13.13168182	     37.58607195	     -7.59896326	    -17.62246091	     -6.16056619	     -7.34803120	    -10.05814698	    -10.87654333	    -17.84481894	     71.88700116	     90.00000001	      0.00000000	      0.00000000	      6.28738852	    -27.32035750	     18.07647924	     90.79164565	     90.00000001	      0.00000000	      0.00000000
      2.18000000	     -1.55565515	      6.80690065	     19.67743608	      0.48566005	      0.88612535	      0.42554205	     21.78871226	    -16.30469097	    -27.23470245	     28.79703806	     -2.58469213	      0.50260313	      8.32604443	      7.85350631	     -7.59747881	      7.30300593	     -1.59955936	     -6.99574405	     13.80042287	      7.72299130	      0.24086282	     13.40743803	     37.48712635	     -7.59747881	    -17.49433533	     -5.94004533	     -7.38442787	     -9.71508319	    -10.92784916	    -17.70494085	     71.32623432	     90.00000001	      0.00000000	      0.00000000	      6.47087549	    -27.05666018	     18.23667495	     90.72232320	     90.00000001	      0.00000000	      0.00000000
      2.19000000	     -1.62694775	      6.61643967	     20.03584680	      0.48950913	      0.88654241	      0.42693683	     21.50583140	    -15.99739483	    -27.37351768	     28.83215728	     -2.56193697	      0.50321607	      8.62623902	      7.64234875	     -7.59576221	      7.59402641	     -1.80524922	     -6.71307153	     14.43504462	      7.47759575	      0.25193906	     13.72534996	     37.36383494	     -7.59576221	    -17.33687253	     -5.66167151	     -7.38281737	     -9.37476147	    -11.02824016	    -17.56862414	     70.77010921	     90.00000001	      0.00000000	      0.00000000	      6.61350133	    -26.74233538	     18.37279119	     90.64838627	     90.00000001	      0.00000000	      0.00000000
      2.20000000	     -1.73430056	      6.31371971	     20.34617921	      0.49327239	      0.88689787	      0.42843193	     21.30196870	    -15.57746664	    -27.39981922	     28.85452039	     -2.48641037	      0.50360638	      8.82918330	      7.16923304	     -7.59323305	      8.07033857	     -2.12861892	     -6.51534259	     15.26833795	      7.24341388	      0.26648277	     14.11441122	     37.22307679	     -7.59323305	    -17.10813164	     -5.30479333	     -7.32158622	     -9.05215602	    -11.22157545	    -17.45019463	     70.28950679	     90.00000001	      0.00000000	      0.00000000	      6.68896974	    -26.38568122	     18.45944548	     90.60077170	     90.00000001	      0.00000000	      0.00000000
      2.21000000	     -1.76569940	      6.13213041	     20.55848458	      0.49712442	      0.88749468	      0.42997798	     20.97721401	    -15.31024393	    -27.37586800	     28.90572663	     -2.25285176	      0.50450010	      9.14090480	      6.82642522	     -7.59189029	      8.35959825	     -2.27888204	     -6.40499769	     15.99444404	      6.89046543	      0.27915571	     14.25450397	     36.93034464	     -7.59189029	    -16.99710367	     -5.06641570	     -7.19499322	     -8.73097117	    -11.40344202	    -17.35186818	     69.78477686	     90.00000001	      0.00000000	      0.00000000	      6.82070497	    -25.99900239	     18.56415027	     90.43408065	     90.00000001	      0.00000000	      0.00000000
      2.22000000	     -1.88283886	      6.13004698	     20.56116859	      0.50119206	      0.88804061	      0.43175499	     20.81148533	    -15.19401017	    -27.36134850	     28.97778921	     -2.19325132	      0.50575783	      9.17652694	      6.78702208	     -7.59162005	      8.39795189	     -2.27883486	     -6.25310466	     16.21135000	      6.75670542	      0.28294143	     14.23468657	     36.80065449	     -7.59162005	    -16.85561550	     -5.10676941	     -6.95543104	     -8.53922091	    -11.48020949	    -17.32204216	     69.74301333	     90.00000001	      0.00000000	      0.00000000	      6.74909180	    -25.67056009	     18.67372363	     90.50972482	     90.00000001	      0.00000000	      0.00000000
      2.23000000	     -2.01552070	      5.38715496	     20.89771356	      0.50459304	      0.88810452	      0.43349229	     20.64752988	    -14.28969678	    -27.47103417	     28.69101005	     -1.98572456	      0.50075259	      9.32144195	      5.82976809	     -7.58764394	      9.60892804	     -3.05934916	     -6.30581338	     18.06741483	      6.44176119	      0.31533588	     14.94900314	     36.32566094	     -7.58764394	    -16.46056972	     -4.34914055	     -6.80906220	     -8.25158326	    -11.87553930	    -17.17624753	     69.13123732	     90.00000001	      0.00000000	      0.00000000	      6.81432055	    -25.16191115	     18.68122334	     90.44180556	     90.00000001	      0.00000000	      0.00000000
      2.24000000	     -2.07122905	      5.17275546	     20.97437541	      0.50830034	      0.88856182	      0.43524077	     20.36100830	    -13.94102163	    -27.58544221	     28.52325949	     -1.80437403	      0.49782479	      9.53519358	      5.65503100	     -7.58558263	     10.04990989	     -3.24380745	     -6.32678753	     18.99396194	      6.14176667	      0.33150717	     15.06307068	     35.76151247	     -7.58558263	    -16.33481171	     -4.15678510	     -6.57965239	     -8.02555820	    -12.15916643	    -17.17192717	     68.86545169	     90.00000001	      0.00000000	      0.00000000	      6.84575848	    -24.79342738	     18.77991516	     90.49518664	     90.00000001	      0.00000000	      0.00000000
